<svg xmlns="http://www.w3.org/2000/svg" fill="none" viewBox="0 0 32 32">
  <path fill="#4454EA" d="M27 14.189c-.75-1.711-2.555-5.753-3.223-6.327-.878-.75-3.362-1.195-6.655-1.195H16.08c-3.293 0-5.776.445-6.655 1.195-.68.574-2.484 4.616-3.175 6.268C4.69 15.02 4 16.45 4 18.746c0 2.297.48 4.113.539 4.324a.647.647 0 0 0 .492.468v1.453c0 .926.75 1.676 1.676 1.676h3.116c.926 0 1.675-.75 1.675-1.676v-.527l.106.059a.61.61 0 0 0 .293.07h9.35a.56.56 0 0 0 .28-.07l.118-.06v.528c0 .926.75 1.676 1.675 1.676h3.117c.926 0 1.675-.75 1.675-1.676v-1.453a.63.63 0 0 0 .493-.468c.058-.211.538-2.11.538-4.324s-.69-3.725-2.202-4.557h.058Zm-19.087 4.58 1.418 1.418H5.359a14.09 14.09 0 0 1-.07-1.44c0-.141 0-.27.012-.4h1.605c.375 0 .75.153 1.019.423h-.012Zm2.965 2.696a.649.649 0 0 0 .597-.399.611.611 0 0 0-.14-.691l-2.508-2.507a2.694 2.694 0 0 0-1.921-.797H5.488c.246-.89.726-1.488 1.535-1.91 1.23-.644 4.452-.972 9.584-.972s8.354.328 9.584.96c.82.422 1.3 1.02 1.535 1.91h-1.418a2.69 2.69 0 0 0-1.921.797l-2.508 2.507a.636.636 0 0 0-.14.691.626.626 0 0 0 .597.399h5.355c-.047.316-.106.586-.153.797h-4.17c-.106 0-.2.023-.282.07l-1.921.972h-9.057l-1.969-.972a.636.636 0 0 0-.292-.07H5.675c-.046-.211-.093-.48-.152-.797h5.355v.012Zm5.202-13.51h1.042c3.785 0 5.46.575 5.812.88.27.245 1.23 2.167 2.366 4.686-1.769-.41-4.628-.621-8.705-.621s-6.936.199-8.705.62c1.136-2.53 2.097-4.44 2.367-4.686.363-.304 2.038-.89 5.823-.89v.011Zm11.763 12.232h-3.984l1.418-1.417c.27-.27.645-.422 1.02-.422h1.605c0 .129.011.258.011.398 0 .504-.023.985-.07 1.441ZM6.32 23.538h3.34l.573.27v1.16a.395.395 0 0 1-.398.398H6.718a.395.395 0 0 1-.398-.398v-1.441.011Zm20.152 1.84h-3.116a.395.395 0 0 1-.399-.398v-1.16l.55-.27h3.363v1.441a.395.395 0 0 1-.398.399v-.012Z"/>
  <path fill="#4454EA" d="M14.124 21.464h4.944a.622.622 0 0 0 .492-.234l2.601-3.117a.628.628 0 0 0 .094-.68.634.634 0 0 0-.574-.362H11.534c-.246 0-.48.14-.585.363a.628.628 0 0 0 .093.68l2.601 3.116a.66.66 0 0 0 .492.234h-.011Zm6.186-3.116-1.476 1.84-4.37.046-1.57-1.875h7.416v-.011Z"/>
</svg>
