<svg xmlns="http://www.w3.org/2000/svg" fill="none" viewBox="0 0 50 50">
  <g clip-path="url(#a)">
    <path fill="#4454EA" d="M23.928 50c-.47-.313-.517-.574-.485-1.122.078-1.64.224-4.077.495-5.659.272-1.581 1.53-2.63 2.886-3.267 1.868-.882 4.085-1.404 5.995-2.224-.058-.37.073-.898-.026-1.237-.032-.115-.887-1.169-1.075-1.566-.689-1.461-1.169-4.342-1.258-5.971-.443-8.378 12.95-8.388 12.507 0-.094 1.764-.6 4.745-1.42 6.3-.171.324-.86 1.175-.907 1.336-.042.141-.052 1.144-.01 1.19 1.925.726 4.132 1.3 5.979 2.172 3.85 1.816 2.828 4.85 3.282 8.446l.104.234V50H48.92c-.193-.172-.407-.282-.47-.559-.406-1.795-.13-4.201-.516-6.023-.235-1.096-1.216-1.691-2.17-2.125-1.587-.725-3.455-1.205-5.093-1.842-.083.297-.015.485-.203.778-.49.777-2.213 2.589-2.922 3.325-.903.94-1.226.47-1.957-.293-.37-.391-2.697-3.043-2.76-3.293-.042-.167-.016-.345-.02-.517-1.613.584-3.45 1.08-5.004 1.78-.84.376-2.046 1.054-2.275 2.02-.433 1.816-.183 4.238-.538 6.107-.062.334-.24.444-.48.642h-.584Zm8.103-22.32c-.058.434.042.971 0 1.415 1.716.527 3.423-.016 4.737-1.17.501-.438.778-1.236 1.587-.902.297.12.396.448.59.61.688.58 1.726.622 2.436.053-.653-2.96-4.07-4.234-6.741-3.07-1.133.496-2.432 1.79-2.604 3.064h-.005Zm9.277 1.806c-1.174.402-2.27.12-3.272-.553-.516.329-.897.752-1.45 1.06-1.247.694-2.849 1.049-4.263.767.063 2.86 1.727 6.561 5.181 5.815 3.198-.69 3.48-4.421 3.804-7.089Zm-2.244 8.206c-1.518.678-3.162.657-4.685 0v1.806l2.39 2.589 2.295-2.59v-1.805Z"/>
    <path fill="currentColor" d="M29.594 50h-.584c-.277-.22-.46-.35-.49-.73-.042-.528.208-2.12.312-2.72.073-.433.068-1.034.57-1.19.662-.21 1.1.214 1.084.882-.01.48-.37 3.194-.547 3.466-.074.115-.251.182-.34.292h-.005Zm14.646 0h-.584c-.09-.11-.267-.178-.34-.292-.177-.272-.537-2.986-.547-3.466-.016-.674.422-1.096 1.085-.882.495.156.495.757.568 1.19.1.6.355 2.192.314 2.72-.032.38-.214.516-.491.73h-.005ZM17.202 15.116c1.847.684 3.93 1.237 5.719 2.041 2.165.976 2.995 2 3.25 4.364.162 1.477.345 3.314.397 4.787.047 1.315-1.378 1.21-1.544.464l-.522-6.023c-.214-1.091-1.242-1.697-2.17-2.125-1.582-.736-3.455-1.216-5.093-1.842-.094.005-.037.38-.073.516-.063.23-2.724 3.263-3.1 3.638-.881.877-1.23.371-1.909-.344-.355-.37-2.708-3.08-2.76-3.294-.042-.167-.016-.344-.02-.516-1.498.495-3.058.98-4.514 1.586-1.096.454-2.374.971-2.765 2.219l-.6 6.331c-.637.741-1.534.418-1.498-.616.057-1.613.235-4.186.506-5.752.292-1.675 1.67-2.74 3.146-3.398 1.79-.799 3.877-1.352 5.719-2.04.042-.048.031-1.15-.01-1.29-.027-.094-.81-1.044-.976-1.368-.752-1.482-1.252-4.4-1.346-6.076-.501-8.508 12.944-8.482 12.5-.093-.088 1.727-.6 4.78-1.418 6.3-.49.908-1.216 1.305-.919 2.526v.005ZM8.6 6.431c1.675.516 3.459-.016 4.737-1.17.506-.454.757-1.247 1.586-.903.287.12.57.6.872.789a1.86 1.86 0 0 0 2.15-.126c-.882-3.83-6.11-4.682-8.516-1.717-.281.345-.83 1.295-.83 1.712v1.415Zm9.276.391c-1.215.423-2.3.063-3.354-.574-1.435 1.451-3.59 2.218-5.63 1.843.156 3.058 1.706 6.608 5.39 5.736 3.01-.715 3.271-4.484 3.59-7.005h.005Zm-2.243 8.206c-1.54.673-3.146.652-4.685 0v1.806l2.39 2.589 2.295-2.59v-1.805Zm14.42-12.674 16.19-.026c1.117.078 2.072.997 2.192 2.104.302 2.797-.23 6.128 0 8.988-.334 3.34-5.056 1.874-7.258 2.213-.94 1.2-1.534 2.683-2.53 3.816a.853.853 0 0 1-.731 0c-.527-.23-2.165-3.696-2.53-3.816-1.628-.146-3.46.146-5.062-.015a2.462 2.462 0 0 1-2.196-2.198c.224-2.855-.308-6.185 0-8.988.11-1.029.929-1.874 1.93-2.078h-.005Zm8.322 14.824c.36-.543 1.55-2.923 2.045-3.08l5.62-.041c.537-.063.782-.407.835-.924.245-2.667-.199-5.7 0-8.41a.768.768 0 0 0-.418-.75l-15.945-.08c-.495-.02-.85.34-.83.83.199 2.71-.244 5.743 0 8.41.048.517.293.861.835.924l5.62.041c.516.162 1.628 2.496 2.035 3.023l.203.062v-.005ZM11.5 30.483c.307-.067.589-.01.808.225l2.306 3.648c1.649.173 3.621-.188 5.233.042 1.096.157 1.973 1.164 2.03 2.266-.23 2.829.297 6.122 0 8.894-.12 1.112-1.075 2.025-2.191 2.104H3.668c-1.143-.162-1.999-1.04-2.103-2.198-.256-2.792.204-5.966 0-8.8.303-3.519 5.045-1.9 7.326-2.344l2.201-3.56c.1-.13.246-.24.407-.277Zm.318 2.323-.204.063c-.407.527-1.518 2.86-2.035 3.022l-5.62.042c-.536.063-.782.407-.834.924-.245 2.667.198 5.7 0 8.409-.02.49.334.85.83.83l15.945-.079a.773.773 0 0 0 .417-.751c-.198-2.71.245-5.742 0-8.41-.047-.516-.292-.86-.835-.923l-5.62-.042c-.495-.157-1.684-2.537-2.044-3.08v-.005Z"/>
    <path fill="currentColor" d="M6.037 22.67c.354-.079.777.041.928.396.277.647-.386 2.96-.36 3.79-.48.788-1.55.542-1.529-.444.016-.61.256-2.657.423-3.2.078-.26.256-.48.538-.543Zm13.92 4.441c-.099-.088-.182-.281-.219-.417-.125-.512-.438-2.834-.407-3.31.058-.882 1.268-.996 1.524-.25.318.924.209 2.469.438 3.471-.036.663-.866.94-1.34.506h.004Z"/>
    <path fill="#4454EA" d="m33.371 6.65 9.648-.021a.784.784 0 0 1 0 1.566c-2.922.34-6.486-.261-9.475 0-.892-.073-1.018-1.263-.172-1.545Zm0 3.127 9.648-.021a.784.784 0 0 1 0 1.566c-2.922.339-6.486-.261-9.475 0-.892-.073-1.018-1.263-.172-1.545ZM6.814 38.689l9.648-.021a.784.784 0 0 1 0 1.566c-2.922.34-6.486-.261-9.475 0-.893-.073-1.018-1.263-.173-1.545Zm0 3.126 9.648-.02a.784.784 0 0 1 0 1.566c-2.922.339-6.486-.261-9.475 0-.893-.074-1.018-1.264-.173-1.546Z"/>
  </g>
  <defs>
    <clipPath id="a">
      <path fill="#fff" d="M0 0h50v50H0z"/>
    </clipPath>
  </defs>
</svg>
