<svg xmlns="http://www.w3.org/2000/svg" fill="none" viewBox="0 0 32 32">
  <path fill="#4454EA" d="M6.624 27.987c-.915 0-1.75-.464-2.226-1.233A2.389 2.389 0 0 1 4 25.43V9.237c.027-1.444 1.18-2.57 2.57-2.57h4.943a2.76 2.76 0 0 1 1.643.556l3.591 2.81c.199.145.437.238.689.238h5.83c1.471 0 2.624 1.153 2.624 2.57v1.935h.424c.861 0 1.643.398 2.12 1.06.477.65.61 1.497.371 2.266l-2.57 8.096A2.544 2.544 0 0 1 23.782 28H6.623v-.013ZM9.87 16.3c-.45 0-.861.305-.994.729l-2.902 9.169.08.053c.185.132.41.199.636.199h17.093c.49 0 .888-.292 1.02-.73l2.57-8.095c.08-.318 0-.65-.198-.901a1.074 1.074 0 0 0-.874-.438H9.857l.013.014Zm-3.3-8.096c-.57 0-1.033.463-1.033 1.033v12.178l.265.04 1.537-4.89a2.544 2.544 0 0 1 2.451-1.802h14.563v-1.935c-.04-.61-.49-1.033-1.034-1.033h-5.883a2.693 2.693 0 0 1-1.63-.557l-3.59-2.81a1.204 1.204 0 0 0-.69-.238H6.571v.014Z"/>
</svg>
