<svg xmlns="http://www.w3.org/2000/svg" fill="none" viewBox="0 0 32 32">
  <path fill="#4454EA" d="m25.807 13.99-9.405-8.457c-.21-.14-.39-.2-.639-.2-.14.02-.349.11-.458.19L5.53 14.34c-.31.418-.18.797-.11.937.15.29.449.479.768.479.19 0 .379-.06.558-.19l9.066-8.138.32.2 8.816 7.958c.2.12.4.17.589.17.438 0 .688-.32.767-.579.1-.339.02-.827-.488-1.177l-.01-.01Zm-1.367 3.362c-.06-.569-.479-.828-.868-.828a.876.876 0 0 0-.867.748l-.02 6.533c-.08.588-.609 1.057-1.197 1.097h-11.24c-.579 0-1.078-.43-1.227-.998L9 17.352a.935.935 0 0 0-.948-.838c-.379.03-.708.299-.808.728.05.858.02 2.413-.01 3.5-.04 1.048-.07 2.125.01 3.122a3.04 3.04 0 0 0 2.444 2.723c1.915.05 3.94.08 6.024.08 2.085 0 4.04-.02 6.243-.07 1.347-.24 2.394-1.406 2.494-2.783.07-.977.04-2.014 0-3.021-.04-1.128-.06-2.624 0-3.461l-.01.02Z"/>
</svg>
