<svg xmlns="http://www.w3.org/2000/svg" fill="none" viewBox="0 0 32 32">
  <path stroke="#4454EA" stroke-linecap="round" stroke-linejoin="round" stroke-width="1.6" d="M19.25 9.18a3.9 3.9 0 0 1-1.098 2.72 3.704 3.704 0 0 1-2.652 1.126 3.704 3.704 0 0 1-2.652-1.127 3.896 3.896 0 0 1-1.099-2.72 3.9 3.9 0 0 1 1.099-2.72A3.704 3.704 0 0 1 15.5 5.334c.995 0 1.949.406 2.652 1.127a3.896 3.896 0 0 1 1.098 2.72ZM8 23.66a7.788 7.788 0 0 1 2.24-5.358 7.406 7.406 0 0 1 5.26-2.21c1.968 0 3.858.794 5.26 2.21A7.788 7.788 0 0 1 23 23.66a17.56 17.56 0 0 1-7.5 1.673A17.57 17.57 0 0 1 8 23.66Z"/>
</svg>
